<svg xmlns="http://www.w3.org/2000/svg" viewBox="0 0 1897 1193"><defs><style>.a{fill:#6a5b7f;}.b,.c{opacity:0.3;}.c,.f,.g,.k{fill:#fff;}.d,.k{opacity:0.1;}.e{fill:#6881a0;}.f,.i{opacity:0.5;}.g{opacity:0.4;}.h{opacity:0.2;}.j{fill:#1c324a;}.l{fill:#627c97;}</style></defs><title>mountain_scene</title><path class="a" d="M2120,1083l139-288,92-286,98,33,99.4-69.3a102,102,0,0,1,43.2-17.2L2728,435l156-127,134,181,181,147,254,73Z" transform="translate(-1810 -308)"/><path class="b" d="M2884,308l-33,111.3a242.3,242.3,0,0,1-88.1,125.9L2666,617l90,173,203,116,359-105L3199,636,3018,489Z" transform="translate(-1810 -308)"/><path class="b" d="M2599.8,470.4a102.7,102.7,0,0,0-43.5,17.3l-98.1,68.4L2449,542l-98-33,47,111,124,35-18.6-28.8,67-89.2a124,124,0,0,1,38.2-33.9L2728,435Z" transform="translate(-1810 -308)"/><polygon class="c" points="918 127 873 197 1074 0 918 127"/><polygon class="c" points="1015 78 924 183 785 274 693 438 740 452 834 279 930 194 1015 78"/><polygon class="b" points="856 309 1096 516 1202 505 953 237 856 309"/><polygon class="d" points="1202 505 991 203 953 237 1202 505"/><polygon class="b" points="1092 179 1261 510 1355 499 1092 179"/><polygon class="b" points="1208 181 1375 447 1408 428 1208 181"/><path class="e" d="M1818,1186l85.1-349.9a57.4,57.4,0,0,1,10.7-21.9L2230,412l49,57.3a188,188,0,0,1,26.6,40.9L2354,611l90-105,94.6,40.3a47.3,47.3,0,0,1,21.2,17.9L2626,667l32-78,79.1,74.3a46.6,46.6,0,0,1,6.9,8.2l56.9,85.8a15.8,15.8,0,0,0,8.4,6.4L2950,808l119-117,116.7-49.4a91.7,91.7,0,0,1,27.6-6.9L3289,628l186-275,162,284,70,544Z" transform="translate(-1810 -308)"/><path class="b" d="M2230,412l21.9,29.1a65.4,65.4,0,0,1,11.5,25l4.2,18.6a65.4,65.4,0,0,1-.5,30.6l-8.5,32.8a65.4,65.4,0,0,0,.9,35.6l17.6,56.9a25.5,25.5,0,0,1-1.3,18.4l-27.5,58.2a9.6,9.6,0,0,1-4,4.3l-11.1,6.2a12.4,12.4,0,0,0-5.7,6.9L2198,822l-13,121,64,16,105-348-61.8-128a59.2,59.2,0,0,0-9.9-14.5Z" transform="translate(-1810 -308)"/><path class="b" d="M2444,505l32.5,80.3a82.8,82.8,0,0,0,59.4,49.9l5.7,1.2a13.7,13.7,0,0,1,10,8.7L2602,784l53-100,55.7,114.2a38.1,38.1,0,0,0,15.8,16.7L2754,830l-38.7,52.4a34.1,34.1,0,0,0-5.8,27.9L2732,1009l58,54,34,131,195-200-152.6-92.4a163.2,163.2,0,0,1-46.5-42.2l-54.7-73.5a163.2,163.2,0,0,0-23.2-25.2L2655,684l-8,15-85.8-133.6a55.6,55.6,0,0,0-25-21.1Z" transform="translate(-1810 -308)"/><path class="f" d="M2252,441a67.7,67.7,0,0,1,9,17l-19-3L1921,871l-103,315,84.5-348.6a68,68,0,0,1,12.7-26.1L2230,412" transform="translate(-1810 -308)"/><path class="b" d="M3069,691l84.9,108.5A333.6,333.6,0,0,0,3323,914.1l58.4,17.1a333.6,333.6,0,0,0,68.4,12.4L3679,961l-22-169-207.1-7.1a129.6,129.6,0,0,1-49.5-11.7l-111.2-50.9a86,86,0,0,1-44-46.2L3289,628l-74.7,6.6a98.1,98.1,0,0,0-29.5,7.4Z" transform="translate(-1810 -308)"/><path class="b" d="M2658,589l44.6,94.9a44,44,0,0,0,9,12.7l96.9,95.1a44,44,0,0,1,4.5,5.2L2860,860l90-52-135.1-42.6a32.3,32.3,0,0,1-17.2-12.9l-53.5-80.6a50.5,50.5,0,0,0-7.5-8.9Z" transform="translate(-1810 -308)"/><path class="c" d="M2259,548,2037,864l240-223C2267.8,603.7,2249.1,570.4,2259,548Z" transform="translate(-1810 -308)"/><polygon class="g" points="634 197 588.5 307.4 454 800 439 651 544 303 634 197"/><polygon class="c" points="845 376 748 690 710 728 701 769 674.5 742.5 688 685 724.5 648.5 792 476 845 376"/><path class="c" d="M2655,684s84,73,88,77,18,19,22,24,55,74,55,74-69-42-86-65S2655,684,2655,684Z" transform="translate(-1810 -308)"/><path class="c" d="M2796,884c36,18,66,30,90,45s98,101,98,101l35-36s-136-83-153-92C2819.8,877.5,2796,884,2796,884Z" transform="translate(-1810 -308)"/><polygon class="h" points="667 277 602 462 563 496 496 745 568 769 667 277"/><polygon class="c" points="732 328 589 778 644 801 732 328"/><polygon class="h" points="905 574 739 744 767 789 905 574"/><path class="h" d="M2037,864l68,36s116-166,128-172,12-5,15-11,28-58,28-58,4-11,1-18Z" transform="translate(-1810 -308)"/><polygon class="g" points="848 281 837 391 816 359 848 281"/><polygon class="c" points="1259 383 1269 396 1154 508 1050 552 1140 500 1259 383"/><polygon class="h" points="1344 491 1209 686 1133.1 640.1 1263.6 571.1 1344 491"/><polygon class="c" points="1344 491 1209 686 1171 769 1344 491"/><polygon class="h" points="1406 579 1178 819 1271 849 1342 718 1337 673 1406 579"/><polygon class="c" points="1513 606 1390 790 1571 623 1513 606"/><polygon class="h" points="1473.6 872.6 1631 652 1559 858 1473.6 872.6"/><path class="g" d="M3475,353,3289,628l-44,48a92.1,92.1,0,0,0,14.5,24l219.1-317.4Z" transform="translate(-1810 -308)"/><polygon class="h" points="1590 465 1611.6 410.6 1600 381 1644 230 1535.6 440.1 1590 465"/><path class="i" d="M3475,353l26,198-18,77-41,128-10,27c-3,3,225,9,225,9l-20-155Z" transform="translate(-1810 -308)"/><polygon class="c" points="1672 103 1577 251 1540 327 1594 256 1672 103"/><polygon class="h" points="1689 121 1790 303 1806 367 1737 246 1689 121"/><polygon class="b" points="1691 243 1847 484 1787 483 1679 297 1691 243"/><path class="j" d="M3315,1454l-172-217-300.8-135.2a140.3,140.3,0,0,1-45.6-32.8L2638,897l-122,98L2346.9,827.8a71,71,0,0,0-27.8-17l-79-25.9a71,71,0,0,1-34.4-24.5L2146,682l-108,82-228-37,4,333v419Z" transform="translate(-1810 -308)"/><path class="b" d="M2146,682l17.9,99.1a41.6,41.6,0,0,0,10.3,20.8l94.5,102.7a41.6,41.6,0,0,1,10.6,33.9L2267,1027a41.6,41.6,0,0,0,13.5,36.8l56.1,49.9a41.6,41.6,0,0,1,12.9,40.3l-5.3,23.4a209.6,209.6,0,0,1-33.4,74.7l-23.8,33.6a59.3,59.3,0,0,0,1,70L2397,1501l147-45-141.8-180.2a80.4,80.4,0,0,1-7.8-84.6L2411,1158l45-89.1a121.3,121.3,0,0,1,17.4-25.6L2516,995,2348.7,829.6a81.8,81.8,0,0,0-32.1-19.6l-73.4-24.1a81.8,81.8,0,0,1-39.7-28.2Z" transform="translate(-1810 -308)"/><path class="b" d="M2638,897l31.7,115a81,81,0,0,1,2.9,24.4l-2.1,58.1a81,81,0,0,0,30,65.9L2742,1194l52-86,57,141,54,86,28,104,323-9-127-162-201-65-134-95-8,13-45.5-110.6a49.4,49.4,0,0,0-9.7-15.1Z" transform="translate(-1810 -308)"/><path class="f" d="M2146,682l-108,82c-20,21-92,108-92,108s-113,160-132,188l.3,150.3S1842,1094,1852,1069s167-258,204-290Z" transform="translate(-1810 -308)"/><path class="c" d="M2164,781l-176,311,197-278S2164,794,2164,781Z" transform="translate(-1810 -308)"/><polygon class="c" points="459 597 401 693 307 737 225 883 121 941 3 1149 3 1025 97 911 199 865 285 719 377 665 436 572 459 597"/><path class="k" d="M1810,727l4,333s178-249,224-296Z" transform="translate(-1810 -308)"/><path class="c" d="M2638,897s-103,80-122,98-44,48-60,74-62,122-62,122,74-89,98-108,89-91,103-112S2638,897,2638,897Z" transform="translate(-1810 -308)"/><polygon class="h" points="232 570 122 799 64 852 95 766 232 570"/><polygon class="h" points="457 719 413 838 325 955 161 1053 202 1126 340 1011 431 850 457 719"/><path class="k" d="M2794,1108l-52,86c-20,30-10,58,0,91C2743,1285,2794,1108,2794,1108Z" transform="translate(-1810 -308)"/><path class="h" d="M2670,1095l-32.9,85.6L2573,1217l-101,18-86-5c-1,16,9,37,16,46l40-5,129-29,82.6-58.4Z" transform="translate(-1810 -308)"/><path class="l" d="M2501,1463l262.4-213.9A418.6,418.6,0,0,0,2851,1151l37.3-58A350.3,350.3,0,0,1,3001,983l102-62,103,59,60,66,83.3-100.4a1248.8,1248.8,0,0,0,98.2-135.9L3508,713l184,239.6V1428Z" transform="translate(-1810 -308)"/><polygon class="b" points="1698 405 1730 538 1673.1 632.6 1687 730 1508 935 1530 1022 1455 1173 1660 1146 1888 1173 1882 645 1698 405"/><path class="b" d="M3103,921l29,78-33,95-114,87-93,176,118-151,141-82,115-78-43.5-49.6a167.4,167.4,0,0,0-48-37.9Z" transform="translate(-1810 -308)"/><path class="c" d="M3508,713s-54,85-61,97-63,91-98,136-83,100-83,100l-115,78,33,1s92-56,116-84,181.7-231.7,192.3-253.3S3508,713,3508,713Z" transform="translate(-1810 -308)"/><polygon class="b" points="1651 773 1879 943 1887 1029 1573 863 1651 773"/><polygon class="d" points="1651 773 1687 730 1895 917 1879 943 1651 773"/><polygon class="d" points="1725 655 1895 775 1895 737 1725 655"/><polygon class="k" points="1673 633 1533 773 1677 669 1673 633"/><polygon class="h" points="1199 1131 1321 979 1383 973 1609 767 1275 1137 1199 1131"/><path class="f" d="M3103,921s-62,39-102,62-104,89-113,110-23,43-37,58-27,43-27,43,96-112,124-139S3103,921,3103,921Z" transform="translate(-1810 -308)"/><polygon class="d" points="1322 691 1377 715 1418 764 1395 779 1363 731 1317 705 1322 691"/><polygon class="c" points="1322 691 1139 853 1315 667 1322 691"/><polygon class="h" points="1175 873 1005 973 955 1045 1175 873"/><polygon class="f" points="1200 898 1082 1049 1065 1093 1200 898"/><polygon class="c" points="1257 867 1071 1147 1121 1145 1257 867"/></svg>