<svg xmlns="http://www.w3.org/2000/svg" viewBox="0 0 1875 1195"><defs><style>.a{fill:#6a5b7f;}.b,.c{opacity:0.3;}.c,.f,.g,.k{fill:#fff;}.d,.k{opacity:0.1;}.e{fill:#6881a0;}.f,.i{opacity:0.5;}.g{opacity:0.4;}.h{opacity:0.2;}.j{fill:#627c97;}.l{fill:#1c324a;}</style></defs><title>mountain_scene</title><path class="a" d="M2120,1083l139-288,92-286,98,33,99.4-69.3a102,102,0,0,1,43.2-17.2L2728,435l156-127,134,181,181,147,254,73Z" transform="translate(-1818 -308)"/><path class="b" d="M2884,308l-33,111.3a242.3,242.3,0,0,1-88.1,125.9L2666,617l90,173,203,116,359-105L3199,636,3018,489Z" transform="translate(-1818 -308)"/><path class="b" d="M2599.8,470.4a102.7,102.7,0,0,0-43.5,17.3l-98.1,68.4L2449,542l-98-33,47,111,124,35-18.6-28.8,67-89.2a124,124,0,0,1,38.2-33.9L2728,435Z" transform="translate(-1818 -308)"/><polygon class="c" points="910 127 865 197 1066 0 910 127"/><polygon class="c" points="1007 78 916 183 777 274 685 438 732 452 826 279 922 194 1007 78"/><polygon class="b" points="848 309 1088 516 1194 505 945 237 848 309"/><polygon class="d" points="1194 505 983 203 945 237 1194 505"/><polygon class="b" points="1084 179 1253 510 1347 499 1084 179"/><polygon class="b" points="1200 181 1367 447 1400 428 1200 181"/><path class="e" d="M3691,1056.7,3637,637,3475,353,3289,628l-75.7,6.7a91.7,91.7,0,0,0-27.6,6.9L3069,691,2950,808l-140.7-44.3a15.8,15.8,0,0,1-8.4-6.4L2744,671.5a46.6,46.6,0,0,0-6.9-8.2L2658,589l-32,78-66.1-102.8a47.3,47.3,0,0,0-21.2-17.9L2444,506l-90,105-48.4-100.8a188,188,0,0,0-26.6-40.9L2230,412,1913.7,814.2a57.4,57.4,0,0,0-10.7,21.9L1818,1186l1873-5Z" transform="translate(-1818 -308)"/><path class="b" d="M2230,412l21.9,29.1a65.4,65.4,0,0,1,11.5,25l4.2,18.6a65.4,65.4,0,0,1-.5,30.6l-8.5,32.8a65.4,65.4,0,0,0,.9,35.6l17.6,56.9a25.5,25.5,0,0,1-1.3,18.4l-27.5,58.2a9.6,9.6,0,0,1-4,4.3l-11.1,6.2a12.4,12.4,0,0,0-5.7,6.9L2198,822l-13,121,64,16,105-348-61.8-128a59.2,59.2,0,0,0-9.9-14.5Z" transform="translate(-1818 -308)"/><path class="b" d="M2444,505l32.5,80.3a82.8,82.8,0,0,0,59.4,49.9l5.7,1.2a13.7,13.7,0,0,1,10,8.7L2602,784l53-100,55.7,114.2a38.1,38.1,0,0,0,15.8,16.7L2754,830l-38.7,52.4a34.1,34.1,0,0,0-5.8,27.9L2732,1009l58,54,34,131,195-200-152.6-92.4a163.2,163.2,0,0,1-46.5-42.2l-54.7-73.5a163.2,163.2,0,0,0-23.2-25.2L2655,684l-8,15-85.8-133.6a55.6,55.6,0,0,0-25-21.1Z" transform="translate(-1818 -308)"/><path class="f" d="M2252,441a67.7,67.7,0,0,1,9,17l-19-3L1921,871l-103,315,84.5-348.6a68,68,0,0,1,12.7-26.1L2230,412" transform="translate(-1818 -308)"/><path class="b" d="M3069,691l84.9,108.5A333.6,333.6,0,0,0,3323,914.1l58.4,17.1a333.6,333.6,0,0,0,68.4,12.4L3679,961l-22-169-207.1-7.1a129.6,129.6,0,0,1-49.5-11.7l-111.2-50.9a86,86,0,0,1-44-46.2L3289,628l-74.7,6.6a98.1,98.1,0,0,0-29.5,7.4Z" transform="translate(-1818 -308)"/><path class="b" d="M2658,589l44.6,94.9a44,44,0,0,0,9,12.7l96.9,95.1a44,44,0,0,1,4.5,5.2L2860,860l90-52-135.1-42.6a32.3,32.3,0,0,1-17.2-12.9l-53.5-80.6a50.5,50.5,0,0,0-7.5-8.9Z" transform="translate(-1818 -308)"/><path class="c" d="M2259,548,2037,864l240-223C2267.8,603.7,2249.1,570.4,2259,548Z" transform="translate(-1818 -308)"/><polygon class="g" points="626 197 580.5 307.4 446 800 431 651 536 303 626 197"/><polygon class="c" points="837 376 740 690 702 728 693 769 666.5 742.5 680 685 716.5 648.5 784 476 837 376"/><path class="c" d="M2655,684s84,73,88,77,18,19,22,24,55,74,55,74-69-42-86-65S2655,684,2655,684Z" transform="translate(-1818 -308)"/><path class="c" d="M2796,884c36,18,66,30,90,45s98,101,98,101l35-36s-136-83-153-92C2819.8,877.5,2796,884,2796,884Z" transform="translate(-1818 -308)"/><polygon class="h" points="659 277 594 462 555 496 488 745 560 769 659 277"/><polygon class="c" points="724 328 581 778 636 801 724 328"/><polygon class="h" points="897 574 731 744 759 789 897 574"/><path class="h" d="M2037,864l68,36s116-166,128-172,12-5,15-11,28-58,28-58,4-11,1-18Z" transform="translate(-1818 -308)"/><polygon class="g" points="840 281 829 391 808 359 840 281"/><polygon class="c" points="1251 383 1261 396 1146 508 1042 552 1132 500 1251 383"/><polygon class="h" points="1336 491 1201 686 1125.1 640.1 1255.6 571.1 1336 491"/><polygon class="c" points="1336 491 1201 686 1163 769 1336 491"/><polygon class="h" points="1398 579 1170 819 1263 849 1334 718 1329 673 1398 579"/><polygon class="c" points="1505 606 1382 790 1563 623 1505 606"/><polygon class="h" points="1465.6 872.6 1623 652 1551 858 1465.6 872.6"/><path class="g" d="M3475,353,3289,628l-44,48a92.1,92.1,0,0,0,14.5,24l219.1-317.4Z" transform="translate(-1818 -308)"/><polygon class="h" points="1582 465 1603.6 410.6 1592 381 1636 230 1527.6 440.1 1582 465"/><path class="i" d="M3475,353l26,198-18,77-41,128-10,27c-3,3,225,9,225,9l-20-155Z" transform="translate(-1818 -308)"/><polygon class="c" points="1664 103 1569 251 1532 327 1586 256 1664 103"/><polygon class="h" points="1681 121 1782 303 1798 367 1729 246 1681 121"/><polygon class="b" points="1683 243 1839 484 1779 483 1671 297 1683 243"/><path class="j" d="M2501,1463l262.4-213.9A418.6,418.6,0,0,0,2851,1151l37.3-58A350.3,350.3,0,0,1,3001,983l102-62,103,59,60,66,83.3-100.4a1248.8,1248.8,0,0,0,98.2-135.9L3508,713l184,239.6V1428Z" transform="translate(-1818 -308)"/><path class="b" d="M3103,921l29,78-33,95-114,87-93,176,118-151,141-82,115-78-43.5-49.6a167.4,167.4,0,0,0-48-37.9Z" transform="translate(-1818 -308)"/><path class="c" d="M3508,713s-54,85-61,97-63,91-98,136-83,100-83,100l-115,78,33,1s92-56,116-84,181.7-231.7,192.3-253.3S3508,713,3508,713Z" transform="translate(-1818 -308)"/><polygon class="b" points="1874 975.3 1871 943 1643 773 1565 863 1874 1026.4 1874 975.3"/><polygon class="d" points="1874 905.3 1679 730 1643 773 1871 943 1874 938.1 1874 905.3"/><polygon class="d" points="1873 730.2 1717 655 1873 765.1 1873 730.2"/><polygon class="k" points="1665 633 1525 773 1669 669 1665 633"/><polygon class="h" points="1191 1131 1313 979 1375 973 1601 767 1267 1137 1191 1131"/><path class="f" d="M3103,921s-62,39-102,62-104,89-113,110-23,43-37,58-27,43-27,43,96-112,124-139S3103,921,3103,921Z" transform="translate(-1818 -308)"/><polygon class="d" points="1314 691 1369 715 1410 764 1387 779 1355 731 1309 705 1314 691"/><polygon class="c" points="1314 691 1131 853 1307 667 1314 691"/><polygon class="h" points="1167 873 997 973 947 1045 1167 873"/><polygon class="f" points="1192 898 1074 1049 1057 1093 1192 898"/><polygon class="c" points="1249 867 1063 1147 1113 1145 1249 867"/><polygon class="b" points="1875 647.7 1692 409 1724 542 1667.1 636.6 1681 734 1502 939 1524 1026 1449 1177 1654 1150 1875 1176.2 1875 647.7"/><path class="l" d="M1819,1480.9,3314,1456l-172-217-300.8-135.2a140.3,140.3,0,0,1-45.6-32.8L2637,899l-122,98L2345.9,829.8a71,71,0,0,0-27.8-17l-79-25.9a71,71,0,0,1-34.4-24.5L2145,684l-108,82-218-35.4Z" transform="translate(-1818 -308)"/><path class="k" d="M1819,730.6v323c31.4-43.8,177-245.8,218-287.6Z" transform="translate(-1818 -308)"/><path class="f" d="M2037,766c-20,21-92,108-92,108s-94.1,133.3-125,177.8v133c8.8-36,24.1-96.6,31-113.8,10-25,167-258,204-290l90-97Z" transform="translate(-1818 -308)"/><path class="b" d="M2145,684l17.9,99.1a41.6,41.6,0,0,0,10.3,20.8l94.5,102.7a41.6,41.6,0,0,1,10.6,33.9L2266,1029a41.6,41.6,0,0,0,13.5,36.8l56.1,49.9a41.6,41.6,0,0,1,12.9,40.3l-5.3,23.4a209.6,209.6,0,0,1-33.4,74.7l-23.8,33.6a59.3,59.3,0,0,0,1,70L2396,1503l147-45-141.8-180.2a80.4,80.4,0,0,1-7.8-84.6L2410,1160l45-89.1a121.3,121.3,0,0,1,17.4-25.6L2515,997,2347.7,831.6a81.8,81.8,0,0,0-32.1-19.6l-73.4-24.1a81.8,81.8,0,0,1-39.7-28.2Z" transform="translate(-1818 -308)"/><path class="b" d="M2637,899l31.7,115a81,81,0,0,1,2.9,24.4l-2.1,58.1a81,81,0,0,0,30,65.9L2741,1196l52-86,57,141,54,86,28,104,323-9-127-162-201-65-134-95-8,13-45.5-110.6a49.4,49.4,0,0,0-9.7-15.1Z" transform="translate(-1818 -308)"/><path class="c" d="M2163,783l-176,311,197-278S2163,796,2163,783Z" transform="translate(-1818 -308)"/><path class="c" d="M2637,899s-103,80-122,98-44,48-60,74-62,122-62,122,74-89,98-108,89-91,103-112S2637,899,2637,899Z" transform="translate(-1818 -308)"/><polygon class="h" points="223 572 113 801 55 854 86 768 223 572"/><polygon class="h" points="448 721 404 840 316 957 152 1055 193 1128 331 1013 422 852 448 721"/><path class="k" d="M2793,1110l-52,86c-20,30-10,58,0,91C2742,1287,2793,1110,2793,1110Z" transform="translate(-1818 -308)"/><path class="h" d="M2669,1097l-32.9,85.6L2572,1219l-101,18-86-5c-1,16,9,37,16,46l40-5,129-29,82.6-58.4Z" transform="translate(-1818 -308)"/></svg>