<svg xmlns="http://www.w3.org/2000/svg" viewBox="0 0 1226.7 515.9"><defs><style>.cls-1{fill:#2b3ea5;}.cls-2{fill:#29328d;opacity:0.3;}.cls-3{opacity:0.21;}.cls-10,.cls-4,.cls-5,.cls-6{fill:#fff;}.cls-11,.cls-4{opacity:0.4;}.cls-5{opacity:0.8;}.cls-6,.cls-8,.cls-9{stroke:#000;stroke-miterlimit:10;stroke-width:4px;}.cls-7{opacity:0.5;}.cls-8{fill:#665d54;}.cls-9{fill:#c7b299;}.cls-10{opacity:0.6;}</style></defs><title>glasses</title><g id="Laag_5" data-name="Laag 5"><path class="cls-1" d="M824,482.8c0,297.9-461.2,298.2-462,0C361.2,174.1,824,176,824,482.8Z" transform="translate(-297 -226)"/><path class="cls-2" d="M458,284.4c4.5,99,2.2,207.9,108.9,254.6,85,37.2,236.7,8.7,258.1-94-22.9,108.8,7.8,185.5-108.7,249.9-81.2,44.9-153.6,37.3-232.5-.9s-115.1-92.5-121.1-182C358.7,451.5,388.7,305.5,458,284.4Z" transform="translate(-297 -226)"/><path class="cls-3" d="M424,328.2c11.1,1.7,6.3,111.2,8.1,123.5,9.6,67.8,39.2,123.1,103.8,151.3,94.6,41.4,267.3-7.9,291.1-122-13.2,62.9-.9,103.9-42.4,151-20.9,23.7-50.9,46.9-79.4,59.8-78.7,35.5-154.7,32.9-232-3.5-70.1-33-93.2-89.5-108.5-164.2C357.8,490.6,375.7,320.9,424,328.2Z" transform="translate(-297 -226)"/><path class="cls-4" d="M755.2,400.4c54.7-20.4,45.6,202.7,9.1,187.6C763.3,587.6,750.6,402.1,755.2,400.4Z" transform="translate(-297 -226)"/><path class="cls-5" d="M756,510.8c19.6-1.3,30.1,74.2,6.3,71.5C755.7,581.6,747.4,511.4,756,510.8Z" transform="translate(-297 -226)"/><path class="cls-1" d="M1485,483.8c0,296.5-461.2,296.8-462,0C1022.2,176.5,1485,178.4,1485,483.8Z" transform="translate(-297 -226)"/><path class="cls-2" d="M1073.1,327.1c25.6,89.9,50.4,196.6,156.5,221.5,78,18.3,256.5-40.7,237.5-147.2,18.1,101.3,40.2,177.3-43.5,255.1-73.5,68.4-160.7,91.1-256.4,56.3-78.7-28.6-129.1-91.2-141.7-173.9C1018.3,491.7,1021.5,357.2,1073.1,327.1Z" transform="translate(-297 -226)"/><path class="cls-3" d="M1069.4,346.7c9.9.5,17.2,100.9,18.6,107.4,13.6,64.1,41,122.5,104.9,149.3,101,42.3,280.9-25.2,293.2-147-6.6,63.9,10,103.4-26.4,154.6-18.3,25.8-45.7,52-72.7,67.8-74.6,43.6-150.4,48.9-231.1,20.8-73.2-25.5-102.1-79.2-125.1-152C1020.5,515.1,1020.5,344.5,1069.4,346.7Z" transform="translate(-297 -226)"/><path class="cls-4" d="M1412.6,413.4c31.7-26.8,65.7,147.5,29.5,146.4C1419.9,559.1,1403.3,421.3,1412.6,413.4Z" transform="translate(-297 -226)"/><path class="cls-5" d="M1434.8,519.6a10.7,10.7,0,0,1,3.7,2.3c13.3,12.5,10.7,39.7-1.4,51.9-14,14.2-31.8,1.1-20.1-16.1,5.7-8.4,3.2-22.7,7-32.2a11.6,11.6,0,0,1,3.3-5.1A7.8,7.8,0,0,1,1434.8,519.6Z" transform="translate(-297 -226)"/></g><g id="Laag_4" data-name="Laag 4"><path class="cls-6" d="M876.9,521.3c-41.6,57.6-82.2,15.1-36.8-35.4C874.9,447.2,911,474,876.9,521.3Z" transform="translate(-297 -226)"/><path class="cls-7" d="M842.7,497.6q-11.2,14.9-6.2,31.3c9.1,14.1,50.2-41.3,32.6-51.5Q850.2,478.6,842.7,497.6Z" transform="translate(-297 -226)"/><path class="cls-6" d="M948,516.5c32.8,60.9,84.5,19.5,37-34.7C950.8,443,921.6,467.7,948,516.5Z" transform="translate(-297 -226)"/><path class="cls-7" d="M978.8,492.6q15.9,18.2,3,33.1c-19.8,9.8-42.4-45.8-29.4-53.3Q971.2,473.6,978.8,492.6Z" transform="translate(-297 -226)"/><path class="cls-8" d="M1008.5,468.7c-40.2-24.3-83.8-31.6-129.6-24-37.9,6.2-74.5,37.5-18,34.3,53.1-3,96.2-1.4,148.6,4.7Z" transform="translate(-297 -226)"/><path class="cls-8" d="M1257.8,234c-60.9-20.8-157.4,15.9-205.3,52.7-57.9,44.4-87.1,117.2-86.1,188.7.9,68.6,28.8,136.8,78.1,185.1a268.9,268.9,0,0,0,103,62.5c16.1,5.3,108.2,29.4,113.3,8.7,2.1-8.6-147.3-61.9-163.4-74.8-52-42.1-69.7-109.9-70.6-173.9-1-79.4,16.4-126.2,80.2-173.6,25.5-18.9,50.1-40.1,78.7-54.5C1197.5,249,1251.3,242.9,1257.8,234Z" transform="translate(-297 -226)"/><path class="cls-9" d="M843.3,474c6.2-13.3,35.2-14.9,47.7-16.7a228.9,228.9,0,0,1,56.7-.8c18,2,36.7,6.2,52.5,15.4,5.2,3,28.7,24.6,12.4,28-4.7,1-11.2-3.8-15.2-5.8a115.1,115.1,0,0,0-21.1-8.1,183.4,183.4,0,0,0-56-6c-19.4.8-38.6,4.1-57.4,8.7-4.5,1.1-14,5.9-18.1,2.7S841.6,477.5,843.3,474Z" transform="translate(-297 -226)"/><path class="cls-8" d="M398,321.6c12.2-16,32.9-35.8,63-57.9,19.3-14.3,64.1-25.7,88-30.7-25.1,3-68,11.1-86.2,18.5-38.1,15.5-64.5,41.2-91.5,71.1a13.7,13.7,0,0,1-4.9,3.4Z" transform="translate(-297 -226)"/><path class="cls-8" d="M518,725.2c-36-12.9-64-25.8-96-57.6s-55.8-75.2-66-113.1c-9-33.5-5-104.5,8-135,4.7-11,6.2-23.3,9.9-36.5H338l-3-36-8-4,3-12,20.8-2.9c-3.1,0-6.1,0-8.9.1l-26,1.5c-20,1-22,16.9-8,18.9,0,0,0,33.7,3,35.7s38.7-1,39.5-.5c3.8,2.3-13.9,39-15.4,43.3-16.7,51.3-15.2,108,5.1,158,18.6,45.8,52.1,85.4,93.8,112.3,31.6,20.5,99.1,36.6,143,41.5C566.2,736.1,536.6,731.9,518,725.2Z" transform="translate(-297 -226)"/><path class="cls-9" d="M745.6,274.1c-43.3-28.2-95-42.2-146.7-43.8-37.7-1.2-76.1,4.5-111.2,18.9-38.1,15.7-64.5,41.5-91.5,71.7-6.4,7.2-19.6,5.1-29.3,5.7L341,328c-20,1-22,17-8,19,0,0,0,34,3,36s38.7-1,39.5-.5c3.8,2.3-13.9,39.3-15.4,43.7-16.7,51.6-15.2,108.8,5.1,159.2,18.6,46.2,52.1,86,93.8,113.2,48.6,31.7,108.4,46,166.1,39.5s112.8-33.8,152.7-75.9c46.7-49.3,71.5-117.7,71.9-185.7C850.1,395.1,814.6,319,745.6,274.1Zm-72.9,421c-36.3,11.6-75.6,14.5-113.5,9.4C516.8,698.8,475,683,443,654.6c-29.1-25.8-49-61-60.2-98.2-13.3-44.1-14.9-91.8-3.2-136.3,23.6-89.4,99.9-155.7,193.4-159.5a221.5,221.5,0,0,1,65.4,7.4C724,290.5,799,359,818.2,445.5c18,81.1-16.8,171.4-84.6,219.5A221.4,221.4,0,0,1,672.7,695.1Z" transform="translate(-297 -226)"/><path class="cls-10" d="M590.8,250a12.3,12.3,0,0,0-1.8,1.7c9.7,1.5,19.2,3.8,28.8,5.6a296.8,296.8,0,0,1,37.8,9.6c60.2,19.6,113,58.7,143.1,115.2,5.9,11,5.6-10.3,4.6-13.8-2.7-10.4-8.5-19.8-15.3-28-45.2-54.3-108.2-84.4-177.7-93.3C603.6,246.3,595.8,246,590.8,250Z" transform="translate(-297 -226)"/><path class="cls-4" d="M439.2,663.3a7.2,7.2,0,0,1,3.3,1.5c21.3,14.8,43.8,31.4,69,39.9s51.9,9.5,78.4,10.7c28.1,1.3,55.6-1.3,82.4-9.7,7.5-2.4,13.9-5.6,22-6.1a3.1,3.1,0,0,1,2.6,1.2c-1.6,4-6.2,7.3-10.2,9.3a89.3,89.3,0,0,1-18.9,6.7c-38.8,9.7-80.7,11.9-120.7,5.1-36.4-6.2-84.5-20.6-109.1-47.9-1.6-1.8-3.1-3.8-3.2-6.1s1.9-4.8,4.4-4.6Z" transform="translate(-297 -226)"/><path class="cls-11" d="M849.3,475.8c-6.5-48.5-8.4-94.5-37.5-136.1-18-25.6-41.8-46.7-68-63.8-42.9-28-92.9-45.9-144-48.3C532,224.4,471.2,249.7,421,294c28-15,61.5-41.5,91.5-47.5,43.2-8.6,80.8-15,124.8-5.6a263.9,263.9,0,0,1,117.8,59.2C806.2,344.9,839.3,408.8,849.3,475.8Z" transform="translate(-297 -226)"/><path class="cls-9" d="M996,476.4c.4,68,25.1,136.3,71.9,185.7,39.9,42.1,95.1,69.5,152.7,75.9s117.4-7.8,166.1-39.5c41.7-27.2,75.2-67,93.8-113.2,20.3-50.4,21.8-107.6,5.1-159.2-1.4-4.4-19.1-41.3-15.4-43.7.8-.5,36.5,2.5,39.5.5s3-36,3-36c14-2,12-18-8-19l-26-1.5c-9.7-.6-22.8,1.5-29.3-5.7-27.1-30.2-53.4-56-91.5-71.7-35-14.4-73.4-20.1-111.2-18.9-51.6,1.6-103.4,15.6-146.7,43.8C1031,319,995.5,395.1,996,476.4ZM1112,664.9c-67.8-48.1-102.5-138.4-84.6-219.5,19.2-86.5,94.2-154.9,179.8-177.5a221.5,221.5,0,0,1,65.4-7.4c93.6,3.8,169.8,70.1,193.4,159.5,11.7,44.5,10.1,92.3-3.2,136.3-11.2,37.2-31.1,72.4-60.2,98.2-32,28.4-73.8,44.2-116.2,49.9-37.9,5.1-77.2,2.2-113.5-9.4A221.4,221.4,0,0,1,1112,664.9Z" transform="translate(-297 -226)"/><path class="cls-10" d="M1464.9,395.2c-1.9.8-3.3-.8-4.1-2.5-4.4-9.8-8-19.6-13.5-29a240.4,240.4,0,0,0-19.1-27.4c-22.1-27.8-50-53.5-83.6-66.3-16.8-6.4-34.9-12.6-52.9-12.1-2.3.1-5.1-.2-5.9-2.3s1-3.9,2.8-4.9a20.2,20.2,0,0,1,8.5-2.1c18.1-1.3,37.8,8.9,54.1,16.2a197.8,197.8,0,0,1,45.6,28.5l4.1,3.5a238.9,238.9,0,0,1,35.8,39.5c6.7,9.2,13.4,18.5,18.9,28.5,3.9,7,8.7,14,9.8,22.1C1465.8,389.7,1467.5,394.1,1464.9,395.2Z" transform="translate(-297 -226)"/><path class="cls-4" d="M1406.5,663.2a7.2,7.2,0,0,0-3.3,1.5c-21.3,14.8-43.8,31.4-69,39.9s-51.9,9.5-78.4,10.7c-28.1,1.3-55.6-1.3-82.4-9.7-7.5-2.4-13.9-5.6-22-6.1a3.1,3.1,0,0,0-2.6,1.2c1.6,4,6.2,7.3,10.2,9.3a89.3,89.3,0,0,0,18.9,6.7c38.8,9.7,80.7,11.9,120.7,5.1,36.4-6.2,84.5-20.6,109.1-47.9,1.6-1.8,3.1-3.8,3.2-6.1s-1.9-4.8-4.4-4.6Z" transform="translate(-297 -226)"/><path class="cls-11" d="M1435.1,303.9c-16.7-15.5-34-30.4-53.5-42.1-30.4-18.3-65.5-28.1-100.9-30.7-53.2-4-109.2,5.8-156.5,31a71.7,71.7,0,0,0-10.9,7.4c5.8-4.6,16.3-7,23.3-9.5s16.4-5.8,24.8-8.1a297.5,297.5,0,0,1,51.4-9.9,302.1,302.1,0,0,1,107.4,8.2,298.5,298.5,0,0,1,71.9,29.4,295.5,295.5,0,0,1,32.9,21.8q7.8,6,15.3,12.5c4.7,4.1,8.2,9.1,13.8,12.1-2.3-6.5-7.5-11.5-12.6-16.3Z" transform="translate(-297 -226)"/><path class="cls-11" d="M1518.4,331.9c-7.4-3.8-68.4-8.9-68.4-8.9,1.4,3,4.4,9.5,11,11C1488,340,1531.2,343,1518.4,331.9Z" transform="translate(-297 -226)"/><path class="cls-7" d="M860,459c11.9-2.7,23.8-6.5,36.2-7,3.2-.1,6.4-.1,9.5-.9,1.1-.3,2.4-1.2,2-2.2a2,2,0,0,0-1.4-1,21.4,21.4,0,0,0-5.2-.9c-14.9-1.1-29.9,2.2-43.9,7.2a28.7,28.7,0,0,0-6.6,3,5.2,5.2,0,0,0-2.1,2.3C846.4,465.2,858.4,459.4,860,459Z" transform="translate(-297 -226)"/><path class="cls-4" d="M932.6,466.4c.2-1.9,3.1-2.8,4.7-3.2,15-3.4,31.3,0,44.6,7.4,1.4.8,2.9,1.9,3.1,3.4.7,6.7-11.3,2-14.2,1.1a80.4,80.4,0,0,0-18.4-3.8C949.2,471.2,931.9,472,932.6,466.4Z" transform="translate(-297 -226)"/></g></svg>